<svg width="177" height="57" viewBox="0 0 177 57" fill="none" xmlns="http://www.w3.org/2000/svg">
<g clip-path="url(#clip0_44_2774)">
<mask id="mask0_44_2774" style="mask-type:luminance" maskUnits="userSpaceOnUse" x="0" y="0" width="57" height="57">
<path d="M56.9666 0H0V56.8847H56.9666V0Z" fill="white"/>
</mask>
<g mask="url(#mask0_44_2774)">
<path opacity="0.994" fill-rule="evenodd" clip-rule="evenodd" d="M21.9069 -0.0429688C26.2342 -0.0429688 30.5615 -0.0429688 34.8889 -0.0429688C36.87 0.229371 38.1084 1.33641 38.604 3.27814C38.661 7.73467 38.661 12.1913 38.604 16.6477C31.2733 23.9569 23.9424 31.2663 16.6117 38.5756C12.2275 38.6324 7.84321 38.6324 3.45897 38.5756C1.58451 38.225 0.417277 37.1322 -0.0427246 35.2971C-0.0427246 30.6986 -0.0427246 26.1001 -0.0427246 21.5017C0.417277 19.6665 1.58451 18.5737 3.45897 18.2232C8.38404 18.1805 13.3091 18.1663 18.2345 18.1805C18.2202 13.1846 18.2345 8.18876 18.2771 3.19299C18.7819 1.31229 19.9918 0.23364 21.9069 -0.0429688ZM23.7859 15.7962C26.4764 15.7696 28.2556 17.0185 29.1238 19.5431C29.6047 22.2318 28.6225 24.1762 26.1773 25.3762C23.3199 26.2435 21.1705 25.3778 19.7291 22.779C18.7735 19.8166 19.6703 17.6167 22.4194 16.1794C22.8784 16.0227 23.3338 15.895 23.7859 15.7962Z" fill="#B80000"/>
<path opacity="0.977" fill-rule="evenodd" clip-rule="evenodd" d="M24.042 18.0957C26.2669 18.2846 27.1922 19.4767 26.8178 21.6722C25.9676 23.3553 24.6723 23.8235 22.9318 23.0774C21.549 22.0249 21.2786 20.7334 22.1204 19.2027C22.6235 18.5764 23.2641 18.2074 24.042 18.0957Z" fill="#B80000"/>
<path opacity="0.992" fill-rule="evenodd" clip-rule="evenodd" d="M56.9238 21.5868C56.9238 26.1285 56.9238 30.6701 56.9238 35.2118C56.5666 36.9167 55.5416 38.0094 53.8491 38.4903C48.7844 38.6162 43.7169 38.6587 38.6467 38.6181C38.661 43.5856 38.6467 48.5531 38.6039 53.5206C38.1083 55.4623 36.87 56.5693 34.8888 56.8416C30.5614 56.8416 26.2342 56.8416 21.9069 56.8416C19.9918 56.565 18.7818 55.4864 18.2771 53.6056C18.2201 49.1207 18.2201 44.6359 18.2771 40.1509C25.6079 32.8416 32.9386 25.5324 40.2694 18.2231C44.7987 18.1401 49.3253 18.1686 53.8491 18.3083C55.5416 18.7892 56.5666 19.8819 56.9238 21.5868ZM32.0703 31.0391C34.968 31.0284 36.7758 32.4192 37.4937 35.2118C37.7145 37.71 36.7039 39.5125 34.4617 40.6193C31.8807 41.4362 29.8167 40.7408 28.2697 38.533C27.3212 36.6183 27.4352 34.7732 28.6114 32.9977C29.5259 31.9107 30.6788 31.2578 32.0703 31.0391Z" fill="#003C69"/>
<path opacity="0.976" fill-rule="evenodd" clip-rule="evenodd" d="M32.2878 33.2959C34.5127 33.4848 35.438 34.6769 35.0635 36.8724C34.1475 38.6245 32.7953 39.0645 31.0067 38.1924C29.7797 37.1023 29.5662 35.8391 30.3662 34.4029C30.8693 33.7766 31.5099 33.4076 32.2878 33.2959Z" fill="#003C69"/>
</g>
<path d="M77.0999 14.9473H80.0681V25.4104H77.0999V14.9473ZM73.0522 25.4104H70.084V14.9473H73.0522V25.4104ZM77.3098 21.3297H72.8423V18.8784H77.3098V21.3297Z" fill="#003C69"/>
<path d="M81.2734 25.4104L85.9058 14.9473H88.829L93.4763 25.4104H90.3882L86.7602 16.3971H87.9295L84.3017 25.4104H81.2734ZM83.807 23.3776L84.5716 21.1952H89.6985L90.463 23.3776H83.807Z" fill="#003C69"/>
<path d="M95.2161 25.5897C95.0162 25.5897 94.8014 25.5748 94.5715 25.5449C94.3517 25.515 94.1167 25.4701 93.8669 25.4104L94.0319 22.9889C94.1717 23.0188 94.3067 23.0337 94.4366 23.0337C94.8464 23.0337 95.1562 22.8743 95.3661 22.5554C95.5759 22.2266 95.7208 21.7682 95.8008 21.1803C95.8908 20.5923 95.9458 19.9047 95.9657 19.1176L96.1156 14.9473H104.571V25.4104H101.647V16.6363L102.292 17.294H98.0494L98.6491 16.6064L98.5742 18.998C98.5441 20.0143 98.4742 20.9312 98.3643 21.7482C98.2543 22.5554 98.0794 23.248 97.8396 23.8259C97.5998 24.3939 97.2649 24.8324 96.8352 25.1413C96.4154 25.4402 95.8757 25.5897 95.2161 25.5897Z" fill="#003C69"/>
<path d="M111.973 25.6199C111.133 25.6199 110.358 25.4853 109.649 25.2163C108.939 24.9472 108.319 24.5686 107.79 24.0804C107.27 23.582 106.865 23.0042 106.575 22.3465C106.286 21.6888 106.141 20.9663 106.141 20.179C106.141 19.3919 106.286 18.6694 106.575 18.0117C106.865 17.354 107.27 16.7811 107.79 16.2928C108.319 15.7945 108.939 15.4109 109.649 15.1419C110.358 14.8728 111.133 14.7383 111.973 14.7383C112.821 14.7383 113.597 14.8728 114.296 15.1419C115.006 15.4109 115.62 15.7945 116.139 16.2928C116.659 16.7811 117.064 17.354 117.354 18.0117C117.654 18.6694 117.804 19.3919 117.804 20.179C117.804 20.9663 117.654 21.6937 117.354 22.3614C117.064 23.0191 116.659 23.592 116.139 24.0804C115.62 24.5686 115.006 24.9472 114.296 25.2163C113.597 25.4853 112.821 25.6199 111.973 25.6199ZM111.973 23.1686C112.372 23.1686 112.742 23.0988 113.082 22.9593C113.432 22.8198 113.732 22.6205 113.981 22.3614C114.241 22.0924 114.441 21.7735 114.58 21.4048C114.731 21.036 114.806 20.6275 114.806 20.179C114.806 19.7207 114.731 19.3121 114.58 18.9534C114.441 18.5847 114.241 18.2709 113.981 18.0117C113.732 17.7427 113.432 17.5384 113.082 17.3989C112.742 17.2594 112.372 17.1896 111.973 17.1896C111.573 17.1896 111.198 17.2594 110.848 17.3989C110.508 17.5384 110.208 17.7427 109.949 18.0117C109.699 18.2709 109.499 18.5847 109.349 18.9534C109.209 19.3121 109.139 19.7207 109.139 20.179C109.139 20.6275 109.209 21.036 109.349 21.4048C109.499 21.7735 109.699 22.0924 109.949 22.3614C110.208 22.6205 110.508 22.8198 110.848 22.9593C111.198 23.0988 111.573 23.1686 111.973 23.1686Z" fill="#003C69"/>
<path d="M119.391 25.4104V14.9473H127.082L127.066 17.294H121.655L122.315 16.6363V25.4104H119.391Z" fill="#003C69"/>
<path d="M132.659 25.6199C131.819 25.6199 131.045 25.4853 130.335 25.2163C129.626 24.9472 129.006 24.5686 128.476 24.0804C127.957 23.582 127.551 23.0042 127.262 22.3465C126.972 21.6888 126.827 20.9663 126.827 20.179C126.827 19.3919 126.972 18.6694 127.262 18.0117C127.551 17.354 127.957 16.7811 128.476 16.2928C129.006 15.7945 129.626 15.4109 130.335 15.1419C131.045 14.8728 131.819 14.7383 132.659 14.7383C133.508 14.7383 134.283 14.8728 134.982 15.1419C135.692 15.4109 136.307 15.7945 136.827 16.2928C137.346 16.7811 137.75 17.354 138.04 18.0117C138.34 18.6694 138.49 19.3919 138.49 20.179C138.49 20.9663 138.34 21.6937 138.04 22.3614C137.75 23.0191 137.346 23.592 136.827 24.0804C136.307 24.5686 135.692 24.9472 134.982 25.2163C134.283 25.4853 133.508 25.6199 132.659 25.6199ZM132.659 23.1686C133.058 23.1686 133.428 23.0988 133.768 22.9593C134.118 22.8198 134.418 22.6205 134.667 22.3614C134.927 22.0924 135.127 21.7735 135.267 21.4048C135.417 21.036 135.492 20.6275 135.492 20.179C135.492 19.7207 135.417 19.3121 135.267 18.9534C135.127 18.5847 134.927 18.2709 134.667 18.0117C134.418 17.7427 134.118 17.5384 133.768 17.3989C133.428 17.2594 133.058 17.1896 132.659 17.1896C132.259 17.1896 131.884 17.2594 131.534 17.3989C131.194 17.5384 130.894 17.7427 130.635 18.0117C130.385 18.2709 130.185 18.5847 130.035 18.9534C129.895 19.3121 129.826 19.7207 129.826 20.179C129.826 20.6275 129.895 21.036 130.035 21.4048C130.185 21.7735 130.385 22.0924 130.635 22.3614C130.894 22.6205 131.194 22.8198 131.534 22.9593C131.884 23.0988 132.259 23.1686 132.659 23.1686Z" fill="#003C69"/>
<path d="M140.077 25.4104V14.9473H145.174C146.433 14.9473 147.408 15.1864 148.097 15.6647C148.797 16.1331 149.147 16.8008 149.147 17.6677C149.147 18.5147 148.822 19.1824 148.172 19.6706C147.522 20.149 146.653 20.388 145.564 20.388L145.863 19.6856C147.043 19.6856 147.962 19.9197 148.622 20.388C149.291 20.8464 149.627 21.5241 149.627 22.421C149.627 23.3377 149.267 24.0651 148.547 24.6032C147.838 25.1413 146.808 25.4104 145.459 25.4104H140.077ZM143.001 23.2878H145.339C145.769 23.2878 146.089 23.1981 146.299 23.0188C146.519 22.8295 146.629 22.5554 146.629 22.1967C146.629 21.8379 146.519 21.5738 146.299 21.4045C146.089 21.2252 145.769 21.1355 145.339 21.1355H143.001V23.2878ZM143.001 19.1325H144.889C145.309 19.1325 145.624 19.0478 145.834 18.8784C146.044 18.6991 146.148 18.4399 146.148 18.1011C146.148 17.7623 146.044 17.5082 145.834 17.3389C145.624 17.1595 145.309 17.0697 144.889 17.0697H143.001V19.1325Z" fill="#003C69"/>
<path d="M156.584 18.2806C157.864 18.2806 158.854 18.5645 159.553 19.1325C160.262 19.7005 160.617 20.5524 160.617 21.6885C160.617 22.9141 160.222 23.8409 159.433 24.4687C158.644 25.0964 157.564 25.4104 156.194 25.4104H151.233V14.9473H154.156V18.2806H156.584ZM156 23.2878C156.5 23.2878 156.894 23.1533 157.184 22.8843C157.484 22.6152 157.634 22.2366 157.634 21.7482C157.634 21.25 157.484 20.9012 157.184 20.702C156.894 20.4927 156.5 20.388 156 20.388H154.156V23.2878H156ZM161.771 25.4104V14.9473H164.695V25.4104H161.771Z" fill="#003C69"/>
<path d="M166.956 25.4101V14.947H169.879V21.0903L174.212 14.947H177V25.4101H174.077V19.2817L169.759 25.4101H166.956ZM171.963 14.3192C170.873 14.3192 170.089 14.11 169.609 13.6915C169.13 13.263 168.89 12.6601 168.89 11.8828H170.883C170.894 12.2316 170.983 12.4907 171.153 12.6601C171.323 12.8295 171.593 12.9142 171.963 12.9142C172.343 12.9142 172.618 12.8295 172.787 12.6601C172.967 12.4907 173.062 12.2316 173.072 11.8828H175.066C175.066 12.6601 174.821 13.263 174.332 13.6915C173.841 14.11 173.052 14.3192 171.963 14.3192Z" fill="#003C69"/>
<path d="M77.0098 39.0721V32.2413H73.9966L73.9516 33.3772C73.9316 33.985 73.8916 34.5531 73.8317 35.0812C73.7817 35.6093 73.7068 36.0926 73.6069 36.5311C73.5168 36.9695 73.3919 37.3482 73.2321 37.667C73.0821 37.976 72.8972 38.2151 72.6773 38.3846L69.5142 38.0109C69.864 38.0209 70.1489 37.9062 70.3688 37.667C70.5986 37.418 70.7785 37.0741 70.9085 36.6358C71.0483 36.1973 71.1482 35.6792 71.2083 35.0812C71.2782 34.4834 71.3282 33.8306 71.3581 33.1231L71.478 29.8945H79.9331V39.0721H77.0098ZM69.1995 42.4651V38.0109H81.3573V42.4651H78.6439V40.3575H71.9278V42.4651H69.1995Z" fill="#003C69"/>
<path d="M87.9337 40.5671C87.0942 40.5671 86.3196 40.4326 85.6101 40.1636C84.9004 39.8945 84.2808 39.5159 83.7511 39.0275C83.2314 38.5293 82.8267 37.9513 82.5369 37.2936C82.2471 36.636 82.1021 35.9136 82.1021 35.1263C82.1021 34.339 82.2471 33.6167 82.5369 32.959C82.8267 32.3013 83.2314 31.7283 83.7511 31.24C84.2808 30.7418 84.9004 30.3581 85.6101 30.0892C86.3196 29.82 87.0942 29.6855 87.9337 29.6855C88.7832 29.6855 89.5577 29.82 90.2574 30.0892C90.9669 30.3581 91.5816 30.7418 92.1012 31.24C92.6209 31.7283 93.0257 32.3013 93.3155 32.959C93.6154 33.6167 93.7653 34.339 93.7653 35.1263C93.7653 35.9136 93.6154 36.641 93.3155 37.3086C93.0257 37.9663 92.6209 38.5393 92.1012 39.0275C91.5816 39.5159 90.9669 39.8945 90.2574 40.1636C89.5577 40.4326 88.7832 40.5671 87.9337 40.5671ZM87.9337 38.1157C88.3334 38.1157 88.7033 38.046 89.043 37.9065C89.3928 37.767 89.6926 37.5677 89.9425 37.3086C90.2024 37.0395 90.4023 36.7207 90.5422 36.352C90.692 35.9833 90.767 35.5747 90.767 35.1263C90.767 34.6679 90.692 34.2594 90.5422 33.9007C90.4023 33.532 90.2024 33.218 89.9425 32.959C89.6926 32.6899 89.3928 32.4857 89.043 32.3461C88.7033 32.2066 88.3334 32.1369 87.9337 32.1369C87.5339 32.1369 87.1591 32.2066 86.8094 32.3461C86.4696 32.4857 86.1698 32.6899 85.9099 32.959C85.66 33.218 85.4601 33.532 85.3103 33.9007C85.1703 34.2594 85.1004 34.6679 85.1004 35.1263C85.1004 35.5747 85.1703 35.9833 85.3103 36.352C85.4601 36.7207 85.66 37.0395 85.9099 37.3086C86.1698 37.5677 86.4696 37.767 86.8094 37.9065C87.1591 38.046 87.5339 38.1157 87.9337 38.1157Z" fill="#003C69"/>
<path d="M101.979 40.3575L99.0253 35.3801L101.409 33.9751L105.322 40.3575H101.979ZM95.2925 40.3575V29.8945H98.2457V40.3575H95.2925ZM97.3912 36.3518V33.9602H101.199V36.3518H97.3912ZM101.694 35.44L98.9503 35.1411L102.173 29.8945H105.292L101.694 35.44Z" fill="#003C69"/>
<path d="M108.466 40.3575V31.5836L109.125 32.2413H105.242V29.8945H114.597V32.2413H110.729L111.389 31.5836V40.3575H108.466Z" fill="#003C69"/>
<path d="M120.976 40.5671C120.137 40.5671 119.362 40.4326 118.653 40.1636C117.942 39.8945 117.324 39.5159 116.794 39.0275C116.274 38.5293 115.869 37.9513 115.579 37.2936C115.29 36.636 115.145 35.9136 115.145 35.1263C115.145 34.339 115.29 33.6167 115.579 32.959C115.869 32.3013 116.274 31.7283 116.794 31.24C117.324 30.7418 117.942 30.3581 118.653 30.0892C119.362 29.82 120.137 29.6855 120.976 29.6855C121.825 29.6855 122.599 29.82 123.3 30.0892C124.009 30.3581 124.623 30.7418 125.143 31.24C125.663 31.7283 126.068 32.3013 126.358 32.959C126.657 33.6167 126.808 34.339 126.808 35.1263C126.808 35.9136 126.657 36.641 126.358 37.3086C126.068 37.9663 125.663 38.5393 125.143 39.0275C124.623 39.5159 124.009 39.8945 123.3 40.1636C122.599 40.4326 121.825 40.5671 120.976 40.5671ZM120.976 38.1157C121.376 38.1157 121.745 38.046 122.085 37.9065C122.435 37.767 122.735 37.5677 122.984 37.3086C123.245 37.0395 123.445 36.7207 123.584 36.352C123.734 35.9833 123.809 35.5747 123.809 35.1263C123.809 34.6679 123.734 34.2594 123.584 33.9007C123.445 33.532 123.245 33.218 122.984 32.959C122.735 32.6899 122.435 32.4857 122.085 32.3461C121.745 32.2066 121.376 32.1369 120.976 32.1369C120.577 32.1369 120.202 32.2066 119.851 32.3461C119.511 32.4857 119.212 32.6899 118.952 32.959C118.702 33.218 118.502 33.532 118.353 33.9007C118.213 34.2594 118.143 34.6679 118.143 35.1263C118.143 35.5747 118.213 35.9833 118.353 36.352C118.502 36.7207 118.702 37.0395 118.952 37.3086C119.212 37.5677 119.511 37.767 119.851 37.9065C120.202 38.046 120.577 38.1157 120.976 38.1157Z" fill="#003C69"/>
<path d="M128.394 40.3575V29.8945H133.192C134.151 29.8945 134.975 30.049 135.666 30.3579C136.365 30.6668 136.905 31.1152 137.284 31.7032C137.664 32.2811 137.854 32.9687 137.854 33.7658C137.854 34.5531 137.664 35.2356 137.284 35.8137C136.905 36.3915 136.365 36.84 135.666 37.1588C134.975 37.4677 134.151 37.6222 133.192 37.6222H130.043L131.363 36.3367V40.3575H128.394ZM131.363 36.6507L130.043 35.2905H133.012C133.632 35.2905 134.091 35.156 134.391 34.8869C134.7 34.6179 134.855 34.2442 134.855 33.7658C134.855 33.2776 134.7 32.8989 134.391 32.6299C134.091 32.3608 133.632 32.2263 133.012 32.2263H130.043L131.363 30.8661V36.6507Z" fill="#003C69"/>
</g>
<defs>
<clipPath id="clip0_44_2774">
<rect width="177" height="57" fill="white"/>
</clipPath>
</defs>
</svg>
